<svg width="200" height="200" viewBox="0 0 200 200" fill="none" xmlns="http://www.w3.org/2000/svg">
  <!-- Background Circle -->
  <circle cx="100" cy="100" r="90" fill="#121212" stroke="#6200EA" stroke-width="5" />
  
  <!-- Camera Lens Shape -->
  <circle cx="100" cy="100" r="50" fill="#1E1E1E" stroke="#6200EA" stroke-width="3" />
  <circle cx="100" cy="100" r="40" fill="#121212" stroke="#6200EA" stroke-opacity="0.5" stroke-width="2" />
  <circle cx="100" cy="100" r="30" fill="#1E1E1E" stroke="#6200EA" stroke-opacity="0.3" stroke-width="2" />
  
  <!-- Camera Flash -->
  <circle cx="75" cy="75" r="8" fill="#03DAC6" />
  
  <!-- Food Plate Icon -->
  <circle cx="100" cy="100" r="22" fill="none" stroke="#BB86FC" stroke-width="3" />
  <path d="M90 100 L110 100 M100 90 L100 110" stroke="#BB86FC" stroke-width="3" stroke-linecap="round" />
  
  <!-- Calorie Text -->
  <path d="M40 140 C 45 130, 55 135, 55 145 C 55 155, 45 160, 40 150 Z" fill="#6200EA" />
  <path d="M60 138 L60 155" stroke="#6200EA" stroke-width="4" stroke-linecap="round" />
  <path d="M70 138 L80 155" stroke="#6200EA" stroke-width="4" stroke-linecap="round" />
  <path d="M90 138 L90 155" stroke="#6200EA" stroke-width="4" stroke-linecap="round" />
  <path d="M100 138 L100 155" stroke="#6200EA" stroke-width="4" stroke-linecap="round" />
  <path d="M110 138 L110 155" stroke="#6200EA" stroke-width="4" stroke-linecap="round" />
  <path d="M120 140 C 125 130, 135 135, 135 145 C 135 155, 125 160, 120 150 Z" fill="#6200EA" />
  <path d="M145 138 L145 155" stroke="#6200EA" stroke-width="4" stroke-linecap="round" />
  <path d="M150 138 L160 155" stroke="#6200EA" stroke-width="4" stroke-linecap="round" />
</svg>
